<svg xmlns="http://www.w3.org/2000/svg" viewBox="0 0 164.22 36.17"><defs><style>.a{fill:#ed1c24;stroke-width:0.24px;}.a,.b,.c{stroke:#fff;}.a,.b,.c,.d,.e,.f{stroke-miterlimit:10;}.b,.c{fill:#2a2d79;}.c{stroke-width:0.69px;}.d,.e,.f{fill:#fff200;}.d{stroke:#ee3124;stroke-width:0.76px;}.e,.f{stroke:#ee3425;}.e{stroke-width:0.69px;}.f{stroke-width:0.71px;}.g{fill:#fcee22;}</style></defs><title>TRADE-poker-3x3</title><text x="-5.71" y="8.21"/><text x="-5.71" y="8.21"/>

<path class="b" d="M6.21,8.1h8.1V9.9H11.59v5.48H8.92V9.9H6.21V8.1Z" transform="translate(-5.71 8.21)"/><path class="c" d="M15.55,15.38V8.1H20a7.58,7.58,0,0,1,1.89.18,2,2,0,0,1,1.05.66A1.94,1.94,0,0,1,23,11.17a2.25,2.25,0,0,1-.84.71,3.62,3.62,0,0,1-.94.29,2.9,2.9,0,0,1,.69.27,2.5,2.5,0,0,1,.43.38,2.9,2.9,0,0,1,.37.45L24,15.38H21l-1.42-2.22a1.75,1.75,0,0,0-.48-0.56,1.27,1.27,0,0,0-.65-0.17H18.22v3H15.55Zm2.68-4.33h1.12A4.7,4.7,0,0,0,20,11a0.73,0.73,0,0,0,.43-0.23,0.61,0.61,0,0,0,.17-0.42,0.62,0.62,0,0,0-.26-0.54,1.84,1.84,0,0,0-1-.19H18.22v1.48Z" transform="translate(-5.71 8.21)"/><path class="c" d="M30.18,14.18h-3l-0.42,1.2H24L27.25,8.1h2.91l3.24,7.28H30.61ZM29.62,12.6l-1-2.62L27.73,12.6h1.89Z" transform="translate(-5.71 8.21)"/><path class="c" d="M34.28,8.1h4a5.52,5.52,0,0,1,1.89.27,3.07,3.07,0,0,1,1.19.77A3,3,0,0,1,42,10.31a4.63,4.63,0,0,1,.21,1.41,4.21,4.21,0,0,1-.31,1.81,3.11,3.11,0,0,1-2.07,1.66,7.24,7.24,0,0,1-1.59.2h-4V8.1Zm2.66,1.65v4h0.65a3.2,3.2,0,0,0,1.19-.16A1.14,1.14,0,0,0,39.34,13a2.94,2.94,0,0,0,.2-1.26,2.17,2.17,0,0,0-.45-1.58,2.11,2.11,0,0,0-1.48-.43H36.94Z" transform="translate(-5.71 8.21)"/><path class="c" d="M43.6,8.1h7.14V9.65H46.27v1.16h4.15V12.3H46.27v1.44h4.6v1.65H43.6V8.1Z" transform="translate(-5.71 8.21)"/><path class="d" d="M55.63,6.89h3.46l4.52,4.7V4.34h3.5v11h-3.5l-4.5-4.66v7.21H55.63v-11Z" transform="translate(-5.71 8.21)"/><path class="c" d="M71.55,8h2.56V9.64a2.17,2.17,0,0,1-.45,1.45,3.67,3.67,0,0,1-1.55.94l-0.56-.88a2.73,2.73,0,0,0,.94-0.53A1,1,0,0,0,72.78,10H71.55V8Z" transform="translate(-5.71 8.21)"/><path class="c" d="M75.37,8.1H79.8A3.4,3.4,0,0,1,82,8.68a2,2,0,0,1,.72,1.65,2.07,2.07,0,0,1-.78,1.72,3.83,3.83,0,0,1-2.4.62H78v2.7H75.37V8.1ZM78,11.2H78.7A1.92,1.92,0,0,0,79.78,11a0.69,0.69,0,0,0,.31-0.58,0.75,0.75,0,0,0-.27-0.58,1.59,1.59,0,0,0-1-.24H78V11.2Z" transform="translate(-5.71 8.21)"/><path class="c" d="M84.08,8.1h2.66v5.49H90.9v1.79H84.08V8.1Z" transform="translate(-5.71 8.21)"/><path class="c" d="M97.41,14.18h-3L94,15.38H91.25L94.49,8.1H97.4l3.24,7.28H97.85ZM96.86,12.6l-1-2.62L95,12.6h1.89Z" transform="translate(-5.71 8.21)"/><path class="c" d="M107,12.4l2.33,0.6a3.4,3.4,0,0,1-.74,1.39,3.19,3.19,0,0,1-1.26.84,5.47,5.47,0,0,1-1.91.28,6.45,6.45,0,0,1-2.3-.34,3.48,3.48,0,0,1-1.54-1.21,3.62,3.62,0,0,1-.65-2.22,3.45,3.45,0,0,1,1.14-2.78,4.82,4.82,0,0,1,3.22-1,5,5,0,0,1,2.56.56,3.32,3.32,0,0,1,1.38,1.71l-2.35.44a1.59,1.59,0,0,0-.26-0.49,1.49,1.49,0,0,0-.55-0.4,1.81,1.81,0,0,0-.72-0.14,1.66,1.66,0,0,0-1.39.61,2.29,2.29,0,0,0-.36,1.43,2.4,2.4,0,0,0,.44,1.66,1.62,1.62,0,0,0,1.22.45,1.64,1.64,0,0,0,1.16-.36A2.11,2.11,0,0,0,107,12.4Z" transform="translate(-5.71 8.21)"/><path class="c" d="M110.62,8.1h7.14V9.65h-4.47v1.16h4.15V12.3h-4.15v1.44h4.6v1.65h-7.27V8.1Z" transform="translate(-5.71 8.21)"/><path class="c" d="M123.33,8.1h4.43a3.4,3.4,0,0,1,2.17.58,2,2,0,0,1,.72,1.65,2.07,2.07,0,0,1-.78,1.72,3.83,3.83,0,0,1-2.4.62H126v2.7h-2.68V8.1ZM126,11.2h0.65a1.92,1.92,0,0,0,1.08-.23,0.69,0.69,0,0,0,.31-0.58,0.75,0.75,0,0,0-.27-0.58,1.59,1.59,0,0,0-1-.24H126V11.2Z" transform="translate(-5.71 8.21)"/><path class="c" d="M131.7,11.75A3.44,3.44,0,0,1,132.88,9a4.92,4.92,0,0,1,3.28-1,5,5,0,0,1,3.32,1,3.37,3.37,0,0,1,1.16,2.73,3.9,3.9,0,0,1-.51,2.09,3.38,3.38,0,0,1-1.47,1.27,5.6,5.6,0,0,1-2.4.45,6.4,6.4,0,0,1-2.41-.39,3.46,3.46,0,0,1-1.55-1.24A3.62,3.62,0,0,1,131.7,11.75Zm2.66,0a2.17,2.17,0,0,0,.49,1.58,2.08,2.08,0,0,0,2.65,0,2.38,2.38,0,0,0,.47-1.69,2,2,0,0,0-.49-1.5,1.84,1.84,0,0,0-1.33-.47,1.76,1.76,0,0,0-1.29.48A2.18,2.18,0,0,0,134.37,11.76Z" transform="translate(-5.71 8.21)"/><path class="c" d="M142.08,8.1h2.66v2.75l2.79-2.75h3.54l-3.15,2.75,3.29,4.53h-3.28l-1.82-3-1.38,1.22v1.78h-2.66V8.1Z" transform="translate(-5.71 8.21)"/><path class="c" d="M152.09,8.1h7.14V9.65h-4.47v1.16h4.15V12.3h-4.15v1.44h4.6v1.65h-7.27V8.1Z" transform="translate(-5.71 8.21)"/><path class="c" d="M160.83,15.38V8.1h4.44a7.58,7.58,0,0,1,1.89.18,2,2,0,0,1,1.05.66,1.94,1.94,0,0,1,.09,2.22,2.24,2.24,0,0,1-.84.71,3.61,3.61,0,0,1-.93.29,2.9,2.9,0,0,1,.69.27,2.48,2.48,0,0,1,.43.38,2.9,2.9,0,0,1,.37.45l1.29,2.11h-3l-1.42-2.22a1.75,1.75,0,0,0-.48-0.56,1.27,1.27,0,0,0-.65-0.17h-0.24v3h-2.68Zm2.68-4.33h1.12a4.7,4.7,0,0,0,.71-0.1,0.73,0.73,0,0,0,.43-0.23,0.61,0.61,0,0,0,.17-0.42,0.62,0.62,0,0,0-.26-0.54,1.84,1.84,0,0,0-1-.19h-1.17v1.48Z" transform="translate(-5.71 8.21)"/><polygon class="e" points="55.48 13.19 59.54 10.36 63.6 13.19 55.48 13.19"/><polygon class="f" points="55.91 25.03 51.63 27.85 47.35 25.03 55.91 25.03"/><text x="-5.71" y="8.21"/><rect class="g" x="50.33" y="15.54" width="2.73" height="10.53"/>
<rect class="g" x="58.33" y="12.38" width="2.63" height="4.52"/><text x="-5.71" y="8.21"/></svg>