<svg xmlns="http://www.w3.org/2000/svg" xmlns:xlink="http://www.w3.org/1999/xlink" viewBox="0 0 167.59 246.04"><defs><style>.border{fill:#E8771B;stroke:#000;}

.a,.b,.c{fill:#fff200;stroke-miterlimit:10;}.a{stroke:#ee3124;stroke-width:6.38px;}.b,.c{stroke:#ee3425;}.b{stroke-width:5.84px;}.c{stroke-width:5.99px;}.d{fill:#fcee22;}
</style></defs>


<path class="border" d="M166.59,235.55a6.89,6.89,0,0,1-6.87,6.87H6.86A6.88,6.88,0,0,1,0,235.55V7.12A6.89,6.89,0,0,1,6.86.25H159.72a6.89,6.89,0,0,1,6.87,6.87V235.55Z" transform="translate(0.5 3.12)"/>

<g id="Nlogo" transform="translate(5 40)">
<path class="a" d="M45.41,57H74.67l38.19,39.7V35.5H142.4v93.23H112.86l-38-39.39v60.87H45.41V57Z" transform="translate(-13.78 -13.44)"/><polygon class="b" points="78.62 27.38 112.92 3.56 147.23 27.38 78.62 27.38"/><polygon class="c" points="82.24 127.43 46.11 151.25 9.98 127.43 82.24 127.43"/><rect class="d" x="35.09" y="47.29" width="23.09" height="88.98"/><rect class="d" x="102.49" y="20.61" width="23.41" height="91.38"/>
</g>

</svg>