<svg xmlns="http://www.w3.org/2000/svg" viewBox="0 0 157.34 17.82"><defs><style>.a{fill:#27aae1;}.b{fill:#231f20;}.c{fill:#38c6f4;}</style></defs><title>Ride Poker -MH</title><path class="a" d="M63.82,22.47h1.1a0.75,0.75,0,0,1,.54.17,0.64,0.64,0,0,1,.18.49,0.66,0.66,0,0,1-.2.51,0.84,0.84,0,0,1-.6.18H64.48v0.79H63.82V22.47Zm0.66,0.91h0.16a0.42,0.42,0,0,0,.27-0.07A0.21,0.21,0,0,0,65,23.14,0.24,0.24,0,0,0,64.92,23a0.35,0.35,0,0,0-.25-0.07H64.48v0.48Z" transform="translate(-10.21 -6.83)"/><path class="a" d="M65.89,23.54A1,1,0,0,1,67,22.43a1.12,1.12,0,0,1,.82.29,1.08,1.08,0,0,1,.29.8,1.32,1.32,0,0,1-.13.62,0.9,0.9,0,0,1-.36.37,1.21,1.21,0,0,1-.6.13,1.37,1.37,0,0,1-.6-0.12A0.9,0.9,0,0,1,66,24.16,1.21,1.21,0,0,1,65.89,23.54Zm0.66,0a0.72,0.72,0,0,0,.12.47,0.46,0.46,0,0,0,.66,0,0.79,0.79,0,0,0,.12-0.5,0.66,0.66,0,0,0-.12-0.44A0.42,0.42,0,0,0,67,22.93a0.4,0.4,0,0,0-.32.14A0.72,0.72,0,0,0,66.56,23.54Z" transform="translate(-10.21 -6.83)"/><path class="a" d="M68.2,22.47h0.63l0.23,1.2,0.33-1.2H70l0.33,1.2,0.23-1.2h0.63l-0.47,2.14H70.07L69.7,23.26l-0.37,1.35H68.67Z" transform="translate(-10.21 -6.83)"/><path class="a" d="M71.41,22.47h1.77v0.46H72.07v0.34h1V23.7h-1v0.42h1.14v0.48h-1.8V22.47Z" transform="translate(-10.21 -6.83)"/><path class="a" d="M73.58,24.61V22.47h1.1a1.61,1.61,0,0,1,.47.05,0.5,0.5,0,0,1,.26.2,0.59,0.59,0,0,1,.1.35,0.57,0.57,0,0,1-.28.52,0.8,0.8,0,0,1-.23.08l0.17,0.08,0.11,0.11L75.36,24l0.32,0.62H74.93L74.58,24a0.5,0.5,0,0,0-.12-0.16,0.28,0.28,0,0,0-.16,0H74.24v0.87H73.58Zm0.66-1.27h0.28l0.17,0a0.18,0.18,0,0,0,.11-0.07,0.22,0.22,0,0,0,0-.28,0.4,0.4,0,0,0-.25-0.06H74.24v0.44Z" transform="translate(-10.21 -6.83)"/><path class="a" d="M75.89,22.47h1.77v0.46H76.55v0.34h1V23.7h-1v0.42H77.7v0.48h-1.8V22.47Z" transform="translate(-10.21 -6.83)"/><path class="a" d="M78.06,22.47h1a1.18,1.18,0,0,1,.47.08,0.77,0.77,0,0,1,.3.23,0.93,0.93,0,0,1,.17.34,1.58,1.58,0,0,1,.05.41,1.44,1.44,0,0,1-.08.53,0.88,0.88,0,0,1-.22.32,0.71,0.71,0,0,1-.3.17,1.53,1.53,0,0,1-.39.06h-1V22.47ZM78.72,23v1.17h0.16a0.68,0.68,0,0,0,.29,0,0.31,0.31,0,0,0,.14-0.16,1,1,0,0,0,0-.37,0.72,0.72,0,0,0-.11-0.47A0.47,0.47,0,0,0,78.89,23H78.72Z" transform="translate(-10.21 -6.83)"/><path class="a" d="M81.38,22.47h1.24a0.67,0.67,0,0,1,.48.15,0.5,0.5,0,0,1,.17.38,0.48,0.48,0,0,1-.12.33,0.53,0.53,0,0,1-.23.14,0.6,0.6,0,0,1,.34.19,0.52,0.52,0,0,1,.11.34,0.59,0.59,0,0,1-.08.3,0.57,0.57,0,0,1-.21.21,0.7,0.7,0,0,1-.25.07l-0.3,0H81.38V22.47ZM82,23.31h0.29a0.33,0.33,0,0,0,.22-0.05,0.19,0.19,0,0,0,.06-0.15A0.18,0.18,0,0,0,82.55,23a0.32,0.32,0,0,0-.21-0.05H82v0.41Zm0,0.84h0.34a0.37,0.37,0,0,0,.24-0.06,0.2,0.2,0,0,0,.07-0.16,0.19,0.19,0,0,0-.07-0.15,0.39,0.39,0,0,0-.24-0.06H82v0.43Z" transform="translate(-10.21 -6.83)"/><path class="a" d="M83.48,22.47h0.73l0.43,0.72,0.43-.72h0.73L85,23.71v0.9H84.32v-0.9Z" transform="translate(-10.21 -6.83)"/><path class="a" d="M87,24.61V22.47h1.1a1.61,1.61,0,0,1,.47.05,0.5,0.5,0,0,1,.26.2,0.59,0.59,0,0,1,.1.35,0.57,0.57,0,0,1-.28.52,0.8,0.8,0,0,1-.23.08l0.17,0.08,0.11,0.11L88.82,24l0.32,0.62H88.39L88,24a0.5,0.5,0,0,0-.12-0.16,0.28,0.28,0,0,0-.16,0H87.7v0.87H87Zm0.66-1.27H88l0.17,0a0.18,0.18,0,0,0,.11-0.07,0.22,0.22,0,0,0,0-.28A0.4,0.4,0,0,0,88,22.9H87.7v0.44Z" transform="translate(-10.21 -6.83)"/><path class="a" d="M89.35,22.47h1.77v0.46H90v0.34h1V23.7H90v0.42h1.14v0.48h-1.8V22.47Z" transform="translate(-10.21 -6.83)"/><path class="a" d="M92.83,24.25H92.07l-0.1.35H91.29l0.8-2.14h0.72l0.8,2.14H92.93Zm-0.14-.46L92.45,23l-0.23.77h0.47Z" transform="translate(-10.21 -6.83)"/><path class="a" d="M93.84,22.47H94.5v1.61h1v0.53H93.84V22.47Z" transform="translate(-10.21 -6.83)"/><path class="a" d="M95.86,22.47h0.66v2.14H95.86V22.47Z" transform="translate(-10.21 -6.83)"/><path class="a" d="M96.94,22.47h1.87V22.9l-1.2,1.25h1.24v0.46h-2V24.16L98,22.92H96.94V22.47Z" transform="translate(-10.21 -6.83)"/><path class="a" d="M99.15,22.47h1.77v0.46H99.81v0.34h1V23.7h-1v0.42H101v0.48h-1.8V22.47Z" transform="translate(-10.21 -6.83)"/><path class="a" d="M103.39,23.83V23.39h1V24.3a2.12,2.12,0,0,1-.52.27,1.78,1.78,0,0,1-.54.07,1.29,1.29,0,0,1-.62-0.13,0.88,0.88,0,0,1-.37-0.39,1.28,1.28,0,0,1-.13-0.59,1.23,1.23,0,0,1,.14-0.61,0.93,0.93,0,0,1,.42-0.39,1.37,1.37,0,0,1,.58-0.1,1.65,1.65,0,0,1,.53.06,0.7,0.7,0,0,1,.29.2,0.9,0.9,0,0,1,.18.34l-0.64.11a0.34,0.34,0,0,0-.13-0.19,0.42,0.42,0,0,0-.24-0.06,0.43,0.43,0,0,0-.35.15,0.73,0.73,0,0,0-.13.48,0.75,0.75,0,0,0,.13.5,0.46,0.46,0,0,0,.36.15,0.69,0.69,0,0,0,.21,0,1.11,1.11,0,0,0,.23-0.11v-0.2h-0.44Z" transform="translate(-10.21 -6.83)"/><path class="a" d="M106.12,24.25h-0.75l-0.1.35h-0.68l0.8-2.14h0.72l0.8,2.14h-0.69ZM106,23.79L105.74,23l-0.23.77H106Z" transform="translate(-10.21 -6.83)"/><path class="a" d="M107.12,22.47H108l0.34,1.3,0.33-1.3h0.87v2.14H109V23l-0.42,1.63h-0.49L107.66,23v1.63h-0.54V22.47Z" transform="translate(-10.21 -6.83)"/><path class="a" d="M110,22.47h0.66v2.14H110V22.47Z" transform="translate(-10.21 -6.83)"/><path class="a" d="M111.12,22.47h0.62l0.81,1.18V22.47h0.62v2.14h-0.62l-0.8-1.18v1.18h-0.62V22.47Z" transform="translate(-10.21 -6.83)"/><path class="a" d="M114.68,23.83V23.39h1V24.3a2.12,2.12,0,0,1-.52.27,1.78,1.78,0,0,1-.54.07,1.29,1.29,0,0,1-.62-0.13,0.88,0.88,0,0,1-.37-0.39,1.28,1.28,0,0,1-.13-0.59,1.23,1.23,0,0,1,.14-0.61,0.93,0.93,0,0,1,.42-0.39,1.37,1.37,0,0,1,.58-0.1,1.65,1.65,0,0,1,.53.06,0.7,0.7,0,0,1,.29.2,0.9,0.9,0,0,1,.18.34l-0.64.11A0.34,0.34,0,0,0,114.9,23a0.42,0.42,0,0,0-.24-0.06,0.43,0.43,0,0,0-.35.15,0.73,0.73,0,0,0-.13.48,0.75,0.75,0,0,0,.13.5,0.46,0.46,0,0,0,.36.15,0.69,0.69,0,0,0,.21,0,1.11,1.11,0,0,0,.23-0.11v-0.2h-0.44Z" transform="translate(-10.21 -6.83)"/><path class="b" d="M11.21,8h3.2l1.23,4.79L16.87,8h3.2v7.87h-2v-6l-1.54,6h-1.8l-1.53-6v6h-2V8Z" transform="translate(-10.21 -6.83)"/><path class="b" d="M26.75,8h2.43v4.69A3.94,3.94,0,0,1,29,14a2.84,2.84,0,0,1-.68,1.08,2.73,2.73,0,0,1-1,.65,4.92,4.92,0,0,1-1.7.26,10.69,10.69,0,0,1-1.25-.08,3.28,3.28,0,0,1-1.14-.32,2.86,2.86,0,0,1-.84-0.68A2.51,2.51,0,0,1,21.85,14a4.7,4.7,0,0,1-.23-1.33V8h2.43v4.8a1.37,1.37,0,0,0,.36,1,1.54,1.54,0,0,0,2,0,1.37,1.37,0,0,0,.36-1V8Z" transform="translate(-10.21 -6.83)"/><path class="b" d="M30.79,8h2.43v5.94H37v1.94H30.79V8Z" transform="translate(-10.21 -6.83)"/><path class="b" d="M37,8h7.4V9.9H41.93v5.93H39.49V9.9H37V8Z" transform="translate(-10.21 -6.83)"/><path class="b" d="M45.6,8H48v7.87H45.6V8Z" transform="translate(-10.21 -6.83)"/><path class="b" d="M49.23,12.12H52.4v1.69H49.23V12.12Z" transform="translate(-10.21 -6.83)"/><path class="b" d="M53.46,8H55.9v2.76h2.66V8H61v7.87H58.55V12.65H55.9v3.19H53.46V8Z" transform="translate(-10.21 -6.83)"/><path class="b" d="M67.46,14.53H64.69l-0.38,1.3H61.83l3-7.87h2.65l3,7.87H67.85ZM67,12.83L66.08,10l-0.86,2.83H67Z" transform="translate(-10.21 -6.83)"/><path class="b" d="M71.19,8h2.27l3,4.36V8h2.29v7.87H76.42l-2.95-4.32v4.32H71.19V8Z" transform="translate(-10.21 -6.83)"/><path class="b" d="M80.37,8H84a4.33,4.33,0,0,1,1.73.29,2.81,2.81,0,0,1,1.09.83,3.45,3.45,0,0,1,.62,1.26,5.86,5.86,0,0,1,.19,1.53,5.3,5.3,0,0,1-.29,2,3.23,3.23,0,0,1-.8,1.17,2.6,2.6,0,0,1-1.1.63,5.67,5.67,0,0,1-1.45.21H80.37V8ZM82.8,9.74V14h0.6a2.5,2.5,0,0,0,1.08-.17,1.15,1.15,0,0,0,.5-0.59,3.7,3.7,0,0,0,.18-1.37,2.65,2.65,0,0,0-.41-1.71,1.73,1.73,0,0,0-1.35-.46H82.8Z" transform="translate(-10.21 -6.83)"/><path class="b" d="M92.59,15.83V8h4.05a5.89,5.89,0,0,1,1.72.19,1.84,1.84,0,0,1,1,.72,2.17,2.17,0,0,1,.37,1.28,2.11,2.11,0,0,1-1,1.9,2.93,2.93,0,0,1-.85.31,2.43,2.43,0,0,1,.63.29,2.43,2.43,0,0,1,.39.41,3,3,0,0,1,.34.49l1.18,2.28H97.59l-1.3-2.41a1.84,1.84,0,0,0-.44-0.61,1,1,0,0,0-.6-0.18H95v3.2H92.59ZM95,11.15h1A3.64,3.64,0,0,0,96.71,11a0.64,0.64,0,0,0,.39-0.25,0.8,0.8,0,0,0-.09-1,1.46,1.46,0,0,0-.91-0.2H95v1.6Z" transform="translate(-10.21 -6.83)"/><path class="b" d="M101.21,8h2.44v7.87h-2.44V8Z" transform="translate(-10.21 -6.83)"/><path class="b" d="M105.43,8H109a4.33,4.33,0,0,1,1.73.29,2.81,2.81,0,0,1,1.09.83,3.45,3.45,0,0,1,.62,1.26,5.86,5.86,0,0,1,.19,1.53,5.3,5.3,0,0,1-.29,2,3.23,3.23,0,0,1-.8,1.17,2.6,2.6,0,0,1-1.1.63,5.67,5.67,0,0,1-1.45.21h-3.62V8Zm2.43,1.78V14h0.6a2.5,2.5,0,0,0,1.08-.17,1.15,1.15,0,0,0,.5-0.59,3.7,3.7,0,0,0,.18-1.37,2.65,2.65,0,0,0-.41-1.71,1.73,1.73,0,0,0-1.35-.46h-0.61Z" transform="translate(-10.21 -6.83)"/><path class="b" d="M113.95,8h6.52V9.64h-4.08v1.25h3.79V12.5h-3.79v1.55h4.2v1.78h-6.64V8Z" transform="translate(-10.21 -6.83)"/><path class="b" d="M125.55,8h4a2.77,2.77,0,0,1,2,.63,2.36,2.36,0,0,1,.66,1.79,2.43,2.43,0,0,1-.72,1.86,3.11,3.11,0,0,1-2.19.67H128v2.92h-2.44V8ZM128,11.32h0.6a1.53,1.53,0,0,0,1-.24,0.79,0.79,0,0,0,.28-0.63,0.88,0.88,0,0,0-.25-0.63,1.28,1.28,0,0,0-.93-0.26H128v1.76Z" transform="translate(-10.21 -6.83)"/><path class="b" d="M133.2,11.9a4.06,4.06,0,0,1,1.07-3,4,4,0,0,1,3-1.07,4.12,4.12,0,0,1,3,1.06,4,4,0,0,1,1.06,3,4.85,4.85,0,0,1-.46,2.26,3.3,3.3,0,0,1-1.34,1.38,4.42,4.42,0,0,1-2.19.49,5,5,0,0,1-2.21-.42,3.32,3.32,0,0,1-1.42-1.34A4.46,4.46,0,0,1,133.2,11.9Zm2.43,0a2.64,2.64,0,0,0,.44,1.71,1.68,1.68,0,0,0,2.42,0,2.91,2.91,0,0,0,.43-1.83,2.44,2.44,0,0,0-.45-1.62,1.53,1.53,0,0,0-1.22-.51,1.48,1.48,0,0,0-1.18.52A2.64,2.64,0,0,0,135.64,11.91Z" transform="translate(-10.21 -6.83)"/><path class="b" d="M142.68,8h2.43v3l2.55-3h3.24l-2.87,3,3,4.9h-3l-1.66-3.24-1.26,1.32v1.92h-2.43V8Z" transform="translate(-10.21 -6.83)"/><path class="b" d="M151.83,8h6.52V9.64h-4.08v1.25h3.79V12.5h-3.79v1.55h4.2v1.78h-6.64V8Z" transform="translate(-10.21 -6.83)"/><path class="b" d="M159.81,15.83V8h4.05a5.89,5.89,0,0,1,1.72.19,1.84,1.84,0,0,1,1,.72,2.17,2.17,0,0,1,.37,1.28,2.11,2.11,0,0,1-1,1.9,2.93,2.93,0,0,1-.85.31,2.43,2.43,0,0,1,.63.29,2.43,2.43,0,0,1,.39.41,3,3,0,0,1,.34.49l1.18,2.28h-2.75l-1.3-2.41a1.84,1.84,0,0,0-.44-0.61,1,1,0,0,0-.6-0.18h-0.21v3.2h-2.44Zm2.44-4.68h1a3.64,3.64,0,0,0,.64-0.11,0.64,0.64,0,0,0,.39-0.25,0.8,0.8,0,0,0-.09-1,1.46,1.46,0,0,0-.91-0.2h-1.07v1.6Z" transform="translate(-10.21 -6.83)"/><path class="c" d="M10.21,7h3.2l1.23,4.79L15.87,7h3.2v7.87h-2v-6l-1.54,6h-1.8l-1.53-6v6h-2V7Z" transform="translate(-10.21 -6.83)"/><path class="c" d="M25.75,7h2.43v4.69A3.94,3.94,0,0,1,28,13a2.84,2.84,0,0,1-.68,1.08,2.72,2.72,0,0,1-1,.65,4.91,4.91,0,0,1-1.7.26,10.7,10.7,0,0,1-1.25-.08,3.28,3.28,0,0,1-1.14-.32,2.86,2.86,0,0,1-.84-0.68A2.51,2.51,0,0,1,20.85,13a4.7,4.7,0,0,1-.23-1.33V7h2.43v4.8a1.37,1.37,0,0,0,.36,1,1.54,1.54,0,0,0,2,0,1.37,1.37,0,0,0,.36-1V7Z" transform="translate(-10.21 -6.83)"/><path class="c" d="M29.79,7h2.43v5.94H36v1.94H29.79V7Z" transform="translate(-10.21 -6.83)"/><path class="c" d="M36,7h7.4V8.9H40.93v5.93H38.49V8.9H36V7Z" transform="translate(-10.21 -6.83)"/><path class="c" d="M44.6,7H47v7.87H44.6V7Z" transform="translate(-10.21 -6.83)"/><path class="c" d="M48.23,11.12H51.4v1.69H48.23V11.12Z" transform="translate(-10.21 -6.83)"/><path class="c" d="M52.46,7H54.9V9.72h2.66V7H60v7.87H57.55V11.65H54.9v3.19H52.46V7Z" transform="translate(-10.21 -6.83)"/><path class="c" d="M66.46,13.53H63.69l-0.38,1.3H60.83l3-7.87h2.65l3,7.87H66.85ZM66,11.83L65.08,9l-0.86,2.83H66Z" transform="translate(-10.21 -6.83)"/><path class="c" d="M70.19,7h2.27l3,4.36V7h2.29v7.87H75.42l-2.95-4.32v4.32H70.19V7Z" transform="translate(-10.21 -6.83)"/><path class="c" d="M79.37,7H83a4.33,4.33,0,0,1,1.73.29,2.81,2.81,0,0,1,1.09.83,3.45,3.45,0,0,1,.62,1.26,5.86,5.86,0,0,1,.19,1.53,5.3,5.3,0,0,1-.29,2,3.23,3.23,0,0,1-.8,1.17,2.6,2.6,0,0,1-1.1.63,5.65,5.65,0,0,1-1.45.21H79.37V7ZM81.8,8.74V13h0.6a2.5,2.5,0,0,0,1.08-.17,1.15,1.15,0,0,0,.5-0.59,3.7,3.7,0,0,0,.18-1.37,2.65,2.65,0,0,0-.41-1.71,1.73,1.73,0,0,0-1.35-.46H81.8Z" transform="translate(-10.21 -6.83)"/><path class="c" d="M91.59,14.83V7h4.05a5.89,5.89,0,0,1,1.72.19,1.84,1.84,0,0,1,1,.72,2.17,2.17,0,0,1,.37,1.28,2.11,2.11,0,0,1-1,1.9,2.93,2.93,0,0,1-.85.31,2.43,2.43,0,0,1,.63.29,2.43,2.43,0,0,1,.39.41,3,3,0,0,1,.34.49l1.18,2.28H96.59l-1.3-2.41a1.84,1.84,0,0,0-.44-0.61,1,1,0,0,0-.6-0.18H94v3.2H91.59ZM94,10.15h1A3.64,3.64,0,0,0,95.71,10,0.64,0.64,0,0,0,96.1,9.8a0.8,0.8,0,0,0-.09-1,1.46,1.46,0,0,0-.91-0.2H94v1.6Z" transform="translate(-10.21 -6.83)"/><path class="c" d="M100.21,7h2.44v7.87h-2.44V7Z" transform="translate(-10.21 -6.83)"/><path class="c" d="M104.43,7H108a4.33,4.33,0,0,1,1.73.29,2.81,2.81,0,0,1,1.09.83,3.45,3.45,0,0,1,.62,1.26,5.86,5.86,0,0,1,.19,1.53,5.3,5.3,0,0,1-.29,2,3.23,3.23,0,0,1-.8,1.17,2.6,2.6,0,0,1-1.1.63,5.65,5.65,0,0,1-1.45.21h-3.62V7Zm2.43,1.78V13h0.6a2.5,2.5,0,0,0,1.08-.17,1.15,1.15,0,0,0,.5-0.59,3.7,3.7,0,0,0,.18-1.37,2.65,2.65,0,0,0-.41-1.71,1.73,1.73,0,0,0-1.35-.46h-0.61Z" transform="translate(-10.21 -6.83)"/><path class="c" d="M112.95,7h6.52V8.64h-4.08V9.89h3.79V11.5h-3.79v1.55h4.2v1.78h-6.64V7Z" transform="translate(-10.21 -6.83)"/><path class="c" d="M124.55,7h4a2.77,2.77,0,0,1,2,.63,2.36,2.36,0,0,1,.66,1.79,2.43,2.43,0,0,1-.72,1.86,3.11,3.11,0,0,1-2.19.67H127v2.92h-2.44V7ZM127,10.32h0.6a1.53,1.53,0,0,0,1-.24,0.79,0.79,0,0,0,.28-0.63,0.88,0.88,0,0,0-.25-0.63,1.28,1.28,0,0,0-.93-0.26H127v1.76Z" transform="translate(-10.21 -6.83)"/><path class="c" d="M132.2,10.9a4.06,4.06,0,0,1,1.07-3,4,4,0,0,1,3-1.07,4.12,4.12,0,0,1,3,1.06,4,4,0,0,1,1.06,3,4.85,4.85,0,0,1-.46,2.26,3.3,3.3,0,0,1-1.34,1.38,4.42,4.42,0,0,1-2.19.49,5,5,0,0,1-2.21-.42,3.32,3.32,0,0,1-1.42-1.34A4.46,4.46,0,0,1,132.2,10.9Zm2.43,0a2.64,2.64,0,0,0,.44,1.71,1.68,1.68,0,0,0,2.42,0,2.91,2.91,0,0,0,.43-1.83,2.44,2.44,0,0,0-.45-1.62,1.53,1.53,0,0,0-1.22-.51,1.48,1.48,0,0,0-1.18.52A2.64,2.64,0,0,0,134.64,10.91Z" transform="translate(-10.21 -6.83)"/><path class="c" d="M141.68,7h2.43v3l2.55-3h3.24l-2.87,3,3,4.9h-3l-1.66-3.24-1.26,1.32v1.92h-2.43V7Z" transform="translate(-10.21 -6.83)"/><path class="c" d="M150.83,7h6.52V8.64h-4.08V9.89h3.79V11.5h-3.79v1.55h4.2v1.78h-6.64V7Z" transform="translate(-10.21 -6.83)"/><path class="c" d="M158.81,14.83V7h4.05a5.89,5.89,0,0,1,1.72.19,1.84,1.84,0,0,1,1,.72,2.17,2.17,0,0,1,.37,1.28,2.11,2.11,0,0,1-1,1.9,2.93,2.93,0,0,1-.85.31,2.43,2.43,0,0,1,.63.29,2.43,2.43,0,0,1,.39.41,3,3,0,0,1,.34.49l1.18,2.28h-2.75l-1.3-2.41a1.84,1.84,0,0,0-.44-0.61,1,1,0,0,0-.6-0.18h-0.21v3.2h-2.44Zm2.44-4.68h1a3.64,3.64,0,0,0,.64-0.11,0.64,0.64,0,0,0,.39-0.25,0.8,0.8,0,0,0-.09-1,1.46,1.46,0,0,0-.91-0.2h-1.07v1.6Z" transform="translate(-10.21 -6.83)"/></svg>