<svg xmlns="http://www.w3.org/2000/svg" viewBox="0 0 164.15 36.17"><defs><style>.a{fill:#50c8ec;stroke:#2e3192;stroke-width:0.5px;}.a,.b,.c,.d,.e,.f{stroke-miterlimit:10;}.b,.c{fill:#84d5f7;stroke-width:0.69px;}.b,.d,.e,.f{stroke:#2e358f;}.c{stroke:#2d378e;}.d,.e,.f{fill:#fff200;}.d{stroke-width:0.76px;}.e{stroke-width:0.69px;}.f{stroke-width:0.71px;}.g{fill:#fcee22;}.h{fill:#03b3db;}</style></defs><title>TRADE-poker-DDB-5card-1</title><path class="a" d="M10.23,26.07h-3V24.91H7.66V22.4H7v0.88H6v-2h5.36v2h-1V22.4H9.76v2.52h0.48v1.16Z" transform="translate(-5.78 8.21)"/><path class="a" d="M15.36,26.11h-1.7L12.14,22.4H11.76V21.24h2.8V22.4h-0.4l0.64,2.08,0.81-2.08h-0.4V21.24h2.36V22.4h-0.4L18,24.48l0.65-2.08H18.24V21.24h2.18V22.4H20.05l-1.54,3.72H16.83L16.1,24.25Z" transform="translate(-5.78 8.21)"/><path class="a" d="M23.85,26.07H20.77V24.91h0.5V22.4h-0.5V21.24h3.08V22.4H23.36v2.52h0.49v1.16Z" transform="translate(-5.78 8.21)"/><path class="a" d="M26.62,26.07H24.4V24.91h0.47V22.4H24.4V21.24H27l2,2.52V22.4H28.49V21.24h2.18V22.4H30.2v3.74H28.42l-2.28-2.92v1.7h0.48v1.16Z" transform="translate(-5.78 8.21)"/><path class="a" d="M36.84,26.07h-3V24.91h0.47V22.4H33.65v0.88h-1v-2H38v2H37V22.4H36.36v2.52h0.48v1.16Z" transform="translate(-5.78 8.21)"/><path class="a" d="M42,26.11h-1.7L38.74,22.4H38.37V21.24h2.8V22.4h-0.4l0.64,2.08,0.81-2.08h-0.4V21.24h2.36V22.4h-0.4l0.82,2.08,0.65-2.08H44.85V21.24H47V22.4H46.66l-1.54,3.72H43.44l-0.73-1.86Z" transform="translate(-5.78 8.21)"/><path class="a" d="M50.46,26.07H47.38V24.91h0.5V22.4h-0.5V21.24h3.08V22.4H50v2.52h0.49v1.16Z" transform="translate(-5.78 8.21)"/><path class="a" d="M53.23,26.07H51V24.91h0.47V22.4H51V21.24h2.56l2,2.52V22.4H55.1V21.24h2.18V22.4H56.81v3.74H55l-2.28-2.92v1.7h0.48v1.16Z" transform="translate(-5.78 8.21)"/><path class="a" d="M62.95,26.07H59.89V24.91h0.47V22.4H59.89V21.24h3.31a8.58,8.58,0,0,1,1.51.1,1.53,1.53,0,0,1,.82.41,1,1,0,0,1,.3.74,0.82,0.82,0,0,1-.28.65,1.64,1.64,0,0,1-.71.35,1.85,1.85,0,0,1,.88.47,1,1,0,0,1,.31.73,1.11,1.11,0,0,1-.35.83,1.78,1.78,0,0,1-1,.44A10.81,10.81,0,0,1,62.95,26.07Zm-0.5-3.77v0.88h0.46a1.06,1.06,0,0,0,.62-0.12,0.4,0.4,0,0,0,.14-0.32,0.44,0.44,0,0,0-.13-0.31,1.12,1.12,0,0,0-.7-0.14H62.45Zm0,1.76v1h0.47a1.48,1.48,0,0,0,.65-0.1,0.38,0.38,0,0,0,.19-0.37,0.41,0.41,0,0,0-.18-0.36,1.35,1.35,0,0,0-.68-0.11H62.45Z" transform="translate(-5.78 8.21)"/><path class="a" d="M66.74,23.64a2.29,2.29,0,0,1,.33-1.17,2.61,2.61,0,0,1,1-.95,2.68,2.68,0,0,1,.5-0.22,3.83,3.83,0,0,1,.56-0.12,4.53,4.53,0,0,1,.64,0A3.13,3.13,0,0,1,72,21.9a2.66,2.66,0,0,1,.6.81,2.19,2.19,0,0,1,.2.93A2.3,2.3,0,0,1,72,25.4a3.19,3.19,0,0,1-2.23.75,3.33,3.33,0,0,1-2.2-.7A2.23,2.23,0,0,1,66.74,23.64Zm2.35,0a2.28,2.28,0,0,0,.18,1.09,0.57,0.57,0,0,0,.53.28,0.59,0.59,0,0,0,.53-0.27,2.31,2.31,0,0,0,.17-1.1,2.34,2.34,0,0,0-.17-1.08,0.57,0.57,0,0,0-.53-0.28,0.58,0.58,0,0,0-.53.27A2.28,2.28,0,0,0,69.08,23.64Z" transform="translate(-5.78 8.21)"/><path class="a" d="M75.71,26.07H73.49V24.91H74V22.4H73.49V21.24h2.56l2,2.52V22.4H77.58V21.24h2.18V22.4H79.29v3.74H77.51l-2.28-2.92v1.7h0.48v1.16Z" transform="translate(-5.78 8.21)"/><path class="a" d="M80.68,22.4H80.27V21.24H83V22.4H82.78V24a1.74,1.74,0,0,0,.12.8,0.48,0.48,0,0,0,.45.21,0.44,0.44,0,0,0,.39-0.18,1.39,1.39,0,0,0,.12-0.71V22.4H83.59V21.24h2V22.4H85.19v1.75a2.41,2.41,0,0,1-.22,1.1,1.5,1.5,0,0,1-.72.66,2.89,2.89,0,0,1-1.24.24A3.94,3.94,0,0,1,82,26a1.69,1.69,0,0,1-.74-0.38,1.52,1.52,0,0,1-.4-0.61,3.27,3.27,0,0,1-.13-1.08V22.4Z" transform="translate(-5.78 8.21)"/><path class="a" d="M87.42,26.07H86.2V24.52h1.22a0.82,0.82,0,0,0,.82.63c0.29,0,.44-0.1.44-0.31a0.32,0.32,0,0,0-.15-0.27,3.71,3.71,0,0,0-.69-0.33,6.71,6.71,0,0,1-1-.46,1.58,1.58,0,0,1-.5-0.49,1.21,1.21,0,0,1-.21-0.68,1.26,1.26,0,0,1,.49-1.05,1.89,1.89,0,0,1,1.2-.38,2,2,0,0,1,1.21.36v-0.3h1.22v1.38H89.07A0.79,0.79,0,0,0,88.28,22c-0.26,0-.4.1-0.4,0.3a0.24,0.24,0,0,0,.11.22,6.15,6.15,0,0,0,.7.34,11.37,11.37,0,0,1,1.07.52,1.37,1.37,0,0,1,.28.22,1.65,1.65,0,0,1,.24.3,1.36,1.36,0,0,1,.21.74,1.29,1.29,0,0,1-.51,1,1.91,1.91,0,0,1-1.28.43,2.32,2.32,0,0,1-1.29-.38v0.32Z" transform="translate(-5.78 8.21)"/><path class="a" d="M96.14,25.81v0.91a4.39,4.39,0,0,1-1.09-.36,4.3,4.3,0,0,1-1-.65,2.77,2.77,0,0,1-.89-2.19A2.78,2.78,0,0,1,94.51,21a4.62,4.62,0,0,1,1.64-.7v0.91a1.1,1.1,0,0,0-.67.56,3.34,3.34,0,0,0-.29,1.65,4.49,4.49,0,0,0,.22,1.65A1.37,1.37,0,0,0,96.14,25.81Z" transform="translate(-5.78 8.21)"/><path class="a" d="M100.26,26.07H97.74V24.91h0.42V22.4H97.74V21.24h2.59a8.76,8.76,0,0,1,1.45.1,3,3,0,0,1,1.06.4,2.19,2.19,0,0,1,.78.83,2.28,2.28,0,0,1,.21.54,2.38,2.38,0,0,1,.07.6,2.24,2.24,0,0,1-.3,1.15,2.14,2.14,0,0,1-.75.79,2.6,2.6,0,0,1-1,.36A11.36,11.36,0,0,1,100.26,26.07Zm0-3.67v2.52h0.2a1.07,1.07,0,0,0,1-.35,1.64,1.64,0,0,0,.22-0.88,2.19,2.19,0,0,0-.09-0.63,0.89,0.89,0,0,0-.34-0.48,1.59,1.59,0,0,0-.86-0.17h-0.08Z" transform="translate(-5.78 8.21)"/><path class="a" d="M107.23,26.07h-2.52V24.91h0.42V22.4h-0.42V21.24h2.59a8.76,8.76,0,0,1,1.45.1,3,3,0,0,1,1.06.4,2.19,2.19,0,0,1,.78.83,2.28,2.28,0,0,1,.21.54,2.38,2.38,0,0,1,.07.6,2.24,2.24,0,0,1-.3,1.15,2.14,2.14,0,0,1-.75.79,2.6,2.6,0,0,1-1,.36A11.36,11.36,0,0,1,107.23,26.07Zm0-3.67v2.52h0.2a1.07,1.07,0,0,0,1-.35,1.64,1.64,0,0,0,.22-0.88,2.19,2.19,0,0,0-.09-0.63,0.89,0.89,0,0,0-.34-0.48,1.59,1.59,0,0,0-.86-0.17h-0.08Z" transform="translate(-5.78 8.21)"/><path class="a" d="M114.68,26.07h-3.06V24.91h0.47V22.4h-0.47V21.24h3.3a8.58,8.58,0,0,1,1.51.1,1.53,1.53,0,0,1,.82.41,1,1,0,0,1,.3.74,0.82,0.82,0,0,1-.28.65,1.64,1.64,0,0,1-.71.35,1.85,1.85,0,0,1,.88.47,1,1,0,0,1,.31.73,1.11,1.11,0,0,1-.35.83,1.78,1.78,0,0,1-1,.44A10.81,10.81,0,0,1,114.68,26.07Zm-0.5-3.77v0.88h0.46a1.06,1.06,0,0,0,.62-0.12,0.4,0.4,0,0,0,.14-0.32,0.44,0.44,0,0,0-.13-0.31,1.12,1.12,0,0,0-.7-0.14h-0.39Zm0,1.76v1h0.47a1.48,1.48,0,0,0,.65-0.1,0.38,0.38,0,0,0,.19-0.37,0.41,0.41,0,0,0-.18-0.36,1.35,1.35,0,0,0-.68-0.11h-0.46Z" transform="translate(-5.78 8.21)"/><path class="a" d="M119.27,21.21V20.3a4.27,4.27,0,0,1,2.06,1,2.79,2.79,0,0,1,.89,2.2A2.78,2.78,0,0,1,120.88,26a4.52,4.52,0,0,1-1.61.68V25.81a1.14,1.14,0,0,0,.67-0.57,3.34,3.34,0,0,0,.29-1.64,4.48,4.48,0,0,0-.22-1.65A1.36,1.36,0,0,0,119.27,21.21Z" transform="translate(-5.78 8.21)"/><text x="-5.78" y="8.21"/><text x="-5.78" y="8.21"/><path class="b" d="M6.21,8.1h8.1V9.9H11.59v5.48H8.92V9.9H6.21V8.1Z" transform="translate(-5.78 8.21)"/><path class="c" d="M15.55,15.38V8.1H20a7.58,7.58,0,0,1,1.89.18,2,2,0,0,1,1.05.66A1.94,1.94,0,0,1,23,11.17a2.25,2.25,0,0,1-.84.71,3.62,3.62,0,0,1-.94.29,2.9,2.9,0,0,1,.69.27,2.5,2.5,0,0,1,.43.38,2.9,2.9,0,0,1,.37.45L24,15.38H21l-1.42-2.22a1.75,1.75,0,0,0-.48-0.56,1.27,1.27,0,0,0-.65-0.17H18.22v3H15.55Zm2.68-4.33h1.12A4.7,4.7,0,0,0,20,11a0.73,0.73,0,0,0,.43-0.23,0.61,0.61,0,0,0,.17-0.42,0.62,0.62,0,0,0-.26-0.54,1.84,1.84,0,0,0-1-.19H18.22v1.48Z" transform="translate(-5.78 8.21)"/><path class="c" d="M30.18,14.18h-3l-0.42,1.2H24L27.25,8.1h2.91l3.24,7.28H30.61ZM29.62,12.6l-1-2.62L27.73,12.6h1.89Z" transform="translate(-5.78 8.21)"/><path class="c" d="M34.28,8.1h4a5.52,5.52,0,0,1,1.89.27,3.07,3.07,0,0,1,1.19.77A3,3,0,0,1,42,10.31a4.63,4.63,0,0,1,.21,1.41,4.21,4.21,0,0,1-.31,1.81,3.11,3.11,0,0,1-2.07,1.66,7.24,7.24,0,0,1-1.59.2h-4V8.1Zm2.66,1.65v4h0.65a3.2,3.2,0,0,0,1.19-.16A1.14,1.14,0,0,0,39.34,13a2.94,2.94,0,0,0,.2-1.26,2.17,2.17,0,0,0-.45-1.58,2.11,2.11,0,0,0-1.48-.43H36.94Z" transform="translate(-5.78 8.21)"/><path class="c" d="M43.6,8.1h7.14V9.65H46.27v1.16h4.15V12.3H46.27v1.44h4.6v1.65H43.6V8.1Z" transform="translate(-5.78 8.21)"/><path class="d" d="M55.63,6.89h3.46l4.52,4.7V4.34h3.5v11h-3.5l-4.5-4.66v7.21H55.63v-11Z" transform="translate(-5.78 8.21)"/><path class="c" d="M69.55,8h2.56V9.64a2.17,2.17,0,0,1-.45,1.45,3.67,3.67,0,0,1-1.55.94l-0.56-.88a2.73,2.73,0,0,0,.94-0.53A1,1,0,0,0,70.78,10H69.55V8Z" transform="translate(-5.78 8.21)"/><path class="c" d="M75.37,8.1H79.8A3.4,3.4,0,0,1,82,8.68a2,2,0,0,1,.72,1.65,2.07,2.07,0,0,1-.78,1.72,3.83,3.83,0,0,1-2.4.62H78v2.7H75.37V8.1ZM78,11.2H78.7A1.92,1.92,0,0,0,79.78,11a0.69,0.69,0,0,0,.31-0.58,0.75,0.75,0,0,0-.27-0.58,1.59,1.59,0,0,0-1-.24H78V11.2Z" transform="translate(-5.78 8.21)"/><path class="c" d="M84.08,8.1h2.66v5.49H90.9v1.79H84.08V8.1Z" transform="translate(-5.78 8.21)"/><path class="c" d="M97.41,14.18h-3L94,15.38H91.25L94.49,8.1H97.4l3.24,7.28H97.85ZM96.86,12.6l-1-2.62L95,12.6h1.89Z" transform="translate(-5.78 8.21)"/><path class="c" d="M107,12.4l2.33,0.6a3.4,3.4,0,0,1-.74,1.39,3.19,3.19,0,0,1-1.26.84,5.47,5.47,0,0,1-1.91.28,6.45,6.45,0,0,1-2.3-.34,3.48,3.48,0,0,1-1.54-1.21,3.62,3.62,0,0,1-.65-2.22,3.45,3.45,0,0,1,1.14-2.78,4.82,4.82,0,0,1,3.22-1,5,5,0,0,1,2.56.56,3.32,3.32,0,0,1,1.38,1.71l-2.35.44a1.59,1.59,0,0,0-.26-0.49,1.49,1.49,0,0,0-.55-0.4,1.81,1.81,0,0,0-.72-0.14,1.66,1.66,0,0,0-1.39.61,2.29,2.29,0,0,0-.36,1.43,2.4,2.4,0,0,0,.44,1.66,1.62,1.62,0,0,0,1.22.45,1.64,1.64,0,0,0,1.16-.36A2.11,2.11,0,0,0,107,12.4Z" transform="translate(-5.78 8.21)"/><path class="c" d="M110.62,8.1h7.14V9.65h-4.47v1.16h4.15V12.3h-4.15v1.44h4.6v1.65h-7.27V8.1Z" transform="translate(-5.78 8.21)"/><path class="c" d="M123.33,8.1h4.43a3.4,3.4,0,0,1,2.17.58,2,2,0,0,1,.72,1.65,2.07,2.07,0,0,1-.78,1.72,3.83,3.83,0,0,1-2.4.62H126v2.7h-2.68V8.1ZM126,11.2h0.65a1.92,1.92,0,0,0,1.08-.23,0.69,0.69,0,0,0,.31-0.58,0.75,0.75,0,0,0-.27-0.58,1.59,1.59,0,0,0-1-.24H126V11.2Z" transform="translate(-5.78 8.21)"/><path class="c" d="M131.7,11.75A3.44,3.44,0,0,1,132.88,9a4.92,4.92,0,0,1,3.28-1,5,5,0,0,1,3.32,1,3.37,3.37,0,0,1,1.16,2.73,3.9,3.9,0,0,1-.51,2.09,3.38,3.38,0,0,1-1.47,1.27,5.6,5.6,0,0,1-2.4.45,6.4,6.4,0,0,1-2.41-.39,3.46,3.46,0,0,1-1.55-1.24A3.62,3.62,0,0,1,131.7,11.75Zm2.66,0a2.17,2.17,0,0,0,.49,1.58,2.08,2.08,0,0,0,2.65,0,2.38,2.38,0,0,0,.47-1.69,2,2,0,0,0-.49-1.5,1.84,1.84,0,0,0-1.33-.47,1.76,1.76,0,0,0-1.29.48A2.18,2.18,0,0,0,134.37,11.76Z" transform="translate(-5.78 8.21)"/><path class="c" d="M142.08,8.1h2.66v2.75l2.79-2.75h3.54l-3.15,2.75,3.29,4.53h-3.28l-1.82-3-1.38,1.22v1.78h-2.66V8.1Z" transform="translate(-5.78 8.21)"/><path class="c" d="M152.09,8.1h7.14V9.65h-4.47v1.16h4.15V12.3h-4.15v1.44h4.6v1.65h-7.27V8.1Z" transform="translate(-5.78 8.21)"/><path class="c" d="M160.83,15.38V8.1h4.44a7.58,7.58,0,0,1,1.89.18,2,2,0,0,1,1.05.66,1.94,1.94,0,0,1,.09,2.22,2.24,2.24,0,0,1-.84.71,3.61,3.61,0,0,1-.93.29,2.9,2.9,0,0,1,.69.27,2.48,2.48,0,0,1,.43.38,2.9,2.9,0,0,1,.37.45l1.29,2.11h-3l-1.42-2.22a1.75,1.75,0,0,0-.48-0.56,1.27,1.27,0,0,0-.65-0.17h-0.24v3h-2.68Zm2.68-4.33h1.12a4.7,4.7,0,0,0,.71-0.1,0.73,0.73,0,0,0,.43-0.23,0.61,0.61,0,0,0,.17-0.42,0.62,0.62,0,0,0-.26-0.54,1.84,1.84,0,0,0-1-.19h-1.17v1.48Z" transform="translate(-5.78 8.21)"/><polygon class="e" points="55.41 13.19 59.47 10.36 63.53 13.19 55.41 13.19"/><polygon class="f" points="55.84 25.03 51.56 27.85 47.28 25.03 55.84 25.03"/><text x="-5.78" y="8.21"/><rect class="g" x="50.25" y="15.54" width="2.73" height="10.53"/><rect class="g" x="58.26" y="12.38" width="2.63" height="4.52"/><path class="h" d="M125,21.28h2.75v1h-1.86l-0.1.64a1.94,1.94,0,0,1,.38-0.14,1.54,1.54,0,0,1,.37,0,1.38,1.38,0,0,1,1,.39,1.33,1.33,0,0,1,.39,1,1.69,1.69,0,0,1-.2.8,1.38,1.38,0,0,1-.57.59,2,2,0,0,1-.94.2,2.72,2.72,0,0,1-.71-0.08,1.4,1.4,0,0,1-.84-0.6,1.92,1.92,0,0,1-.21-0.5l1.17-.13a0.74,0.74,0,0,0,.2.44,0.52,0.52,0,0,0,.37.15,0.5,0.5,0,0,0,.4-0.19,0.87,0.87,0,0,0,.16-0.56,0.83,0.83,0,0,0-.16-0.56,0.54,0.54,0,0,0-.42-0.18,0.67,0.67,0,0,0-.32.08,1,1,0,0,0-.26.22l-1-.15Z" transform="translate(-5.78 8.21)"/><path class="h" d="M132.69,24.36l1.1,0.13a1.6,1.6,0,0,1-.3.61,1.39,1.39,0,0,1-.53.4,2,2,0,0,1-.82.14,3,3,0,0,1-.8-0.09,1.38,1.38,0,0,1-.55-0.3,1.5,1.5,0,0,1-.36-0.48A1.75,1.75,0,0,1,130.3,24a1.78,1.78,0,0,1,.16-0.8,1.44,1.44,0,0,1,.32-0.42,1.46,1.46,0,0,1,.42-0.28,2.24,2.24,0,0,1,.87-0.14,2,2,0,0,1,1.13.27,1.43,1.43,0,0,1,.55.8l-1.09.15a0.53,0.53,0,0,0-.19-0.3,0.6,0.6,0,0,0-.36-0.1,0.58,0.58,0,0,0-.47.21,1,1,0,0,0-.18.64,0.85,0.85,0,0,0,.18.58,0.57,0.57,0,0,0,.45.2,0.61,0.61,0,0,0,.38-0.12A0.72,0.72,0,0,0,132.69,24.36Z" transform="translate(-5.78 8.21)"/><path class="h" d="M135.38,23.47l-1.11-.12a1.27,1.27,0,0,1,.18-0.47,1,1,0,0,1,.34-0.3,1.4,1.4,0,0,1,.44-0.14,3.44,3.44,0,0,1,.6,0,4.66,4.66,0,0,1,.84.06,1.06,1.06,0,0,1,.53.25,0.89,0.89,0,0,1,.23.37,1.39,1.39,0,0,1,.09.46v1.37a1.62,1.62,0,0,0,0,.34,1.49,1.49,0,0,0,.12.32h-1.09a1.12,1.12,0,0,1-.09-0.18,1.35,1.35,0,0,1,0-.2,1.5,1.5,0,0,1-.45.32,1.84,1.84,0,0,1-.71.13,1.17,1.17,0,0,1-.82-0.26,0.83,0.83,0,0,1-.28-0.64,0.85,0.85,0,0,1,.2-0.58,1.35,1.35,0,0,1,.75-0.34l0.85-.19,0.41-.14a0.43,0.43,0,0,0-.09-0.31A0.43,0.43,0,0,0,136,23.1a0.78,0.78,0,0,0-.43.09A0.51,0.51,0,0,0,135.38,23.47Zm1,0.63-0.5.16a1.14,1.14,0,0,0-.45.19,0.3,0.3,0,0,0-.1.22,0.3,0.3,0,0,0,.1.23,0.39,0.39,0,0,0,.28.09,0.7,0.7,0,0,0,.36-0.1,0.58,0.58,0,0,0,.24-0.24,0.83,0.83,0,0,0,.07-0.36V24.1Z" transform="translate(-5.78 8.21)"/><path class="h" d="M138.23,22.46h1.08V23a1.22,1.22,0,0,1,.32-0.46,0.67,0.67,0,0,1,.41-0.12,1.2,1.2,0,0,1,.56.16l-0.36.85a0.89,0.89,0,0,0-.32-0.09,0.4,0.4,0,0,0-.35.19,2,2,0,0,0-.18,1v1h-1.16V22.46Z" transform="translate(-5.78 8.21)"/><path class="h" d="M144.13,21.28v4.29H143V25.12a1.48,1.48,0,0,1-.42.4,1.16,1.16,0,0,1-.56.13,1.07,1.07,0,0,1-.94-0.48A2,2,0,0,1,140.8,24a1.74,1.74,0,0,1,.36-1.18,1.16,1.16,0,0,1,.91-0.41,1.25,1.25,0,0,1,.49.09,1.12,1.12,0,0,1,.39.28V21.28h1.17ZM143,24a0.84,0.84,0,0,0-.15-0.55,0.48,0.48,0,0,0-.38-0.18,0.42,0.42,0,0,0-.34.17A1,1,0,0,0,142,24a0.89,0.89,0,0,0,.14.56,0.43,0.43,0,0,0,.35.18,0.46,0.46,0,0,0,.37-0.18A0.91,0.91,0,0,0,143,24Z" transform="translate(-5.78 8.21)"/><path class="h" d="M146.44,22.46h1.21l0.59,2,0.61-2H150l-1.28,3.11h-1Z" transform="translate(-5.78 8.21)"/><path class="h" d="M153.55,24.32h-2.32a0.79,0.79,0,0,0,.15.43,0.54,0.54,0,0,0,.44.2,0.64,0.64,0,0,0,.32-0.09,0.77,0.77,0,0,0,.2-0.2l1.14,0.11a1.66,1.66,0,0,1-.63.67,2.25,2.25,0,0,1-1.06.2,2.13,2.13,0,0,1-.95-0.17,1.41,1.41,0,0,1-.57-0.55A1.71,1.71,0,0,1,150,24a1.59,1.59,0,0,1,.45-1.18,1.7,1.7,0,0,1,1.25-.45,2.18,2.18,0,0,1,1,.2,1.35,1.35,0,0,1,.57.59,2.19,2.19,0,0,1,.2,1v0.13Zm-1.18-.57a0.82,0.82,0,0,0-.18-0.5,0.56,0.56,0,0,0-.83.08,0.84,0.84,0,0,0-.13.42h1.14Z" transform="translate(-5.78 8.21)"/><path class="h" d="M154.09,22.46h1.08V23a1.22,1.22,0,0,1,.32-0.46,0.67,0.67,0,0,1,.41-0.12,1.2,1.2,0,0,1,.56.16l-0.36.85a0.89,0.89,0,0,0-.32-0.09,0.4,0.4,0,0,0-.35.19,2,2,0,0,0-.18,1v1h-1.16V22.46Z" transform="translate(-5.78 8.21)"/><path class="h" d="M156.61,24.71l1.15-.11a0.5,0.5,0,0,0,.54.39,0.57,0.57,0,0,0,.36-0.1,0.23,0.23,0,0,0,.1-0.19,0.22,0.22,0,0,0-.13-0.2,2.33,2.33,0,0,0-.5-0.12,5.12,5.12,0,0,1-.84-0.2,0.89,0.89,0,0,1-.39-0.31,0.82,0.82,0,0,1-.16-0.5,0.83,0.83,0,0,1,.17-0.53,1,1,0,0,1,.48-0.33,2.5,2.5,0,0,1,.82-0.11,2.76,2.76,0,0,1,.8.08,1,1,0,0,1,.43.26,1.39,1.39,0,0,1,.29.48l-1.1.11a0.39,0.39,0,0,0-.14-0.22,0.57,0.57,0,0,0-.33-0.09,0.46,0.46,0,0,0-.29.07,0.22,0.22,0,0,0-.09.17,0.18,0.18,0,0,0,.11.17,1.79,1.79,0,0,0,.5.11,3.31,3.31,0,0,1,.86.19,1,1,0,0,1,.43.34,0.85,0.85,0,0,1,.15.49,1,1,0,0,1-.16.52,1.09,1.09,0,0,1-.5.41,2.33,2.33,0,0,1-.93.15,2.15,2.15,0,0,1-1.18-.24A1.09,1.09,0,0,1,156.61,24.71Z" transform="translate(-5.78 8.21)"/><path class="h" d="M160.42,21.28h1.16v0.81h-1.16V21.28Zm0,1.18h1.16v3.11h-1.16V22.46Z" transform="translate(-5.78 8.21)"/><path class="h" d="M162.18,24a1.58,1.58,0,0,1,.47-1.17,2,2,0,0,1,2.63.08,1.73,1.73,0,0,1-.09,2.25,1.74,1.74,0,0,1-1.28.46,1.76,1.76,0,0,1-1.18-.38A1.55,1.55,0,0,1,162.18,24Zm1.16,0a1,1,0,0,0,.16.62,0.53,0.53,0,0,0,.82,0,1,1,0,0,0,.16-0.63,0.94,0.94,0,0,0-.16-0.6,0.5,0.5,0,0,0-.4-0.2,0.52,0.52,0,0,0-.42.2A1,1,0,0,0,163.34,24Z" transform="translate(-5.78 8.21)"/><path class="h" d="M166.21,22.46h1.08V23a1.64,1.64,0,0,1,.49-0.44,1.27,1.27,0,0,1,.6-0.13,1,1,0,0,1,.75.29,1.31,1.31,0,0,1,.27.91v2h-1.16V23.86a0.63,0.63,0,0,0-.11-0.41,0.37,0.37,0,0,0-.3-0.12,0.42,0.42,0,0,0-.34.16,1,1,0,0,0-.13.59v1.49h-1.16V22.46Z" transform="translate(-5.78 8.21)"/><text x="-5.78" y="8.21"/></svg>