<svg xmlns="http://www.w3.org/2000/svg" viewBox="0 0 168.79 17.58"><defs><style>.a{fill:#27aae1;}.b{fill:#231f20;}.c{fill:#54c8e3;}</style></defs><title>Mississippi poker</title><path class="a" d="M63.82,22.47h1.1a0.75,0.75,0,0,1,.54.17,0.64,0.64,0,0,1,.18.49,0.66,0.66,0,0,1-.2.51,0.84,0.84,0,0,1-.6.18H64.48v0.79H63.82V22.47Zm0.66,0.91h0.16a0.42,0.42,0,0,0,.27-0.07A0.21,0.21,0,0,0,65,23.14,0.24,0.24,0,0,0,64.92,23a0.35,0.35,0,0,0-.25-0.07H64.48v0.48Z" transform="translate(-3.48 -7.07)"/><path class="a" d="M65.89,23.54A1,1,0,0,1,67,22.43a1.12,1.12,0,0,1,.82.29,1.08,1.08,0,0,1,.29.8,1.32,1.32,0,0,1-.13.62,0.9,0.9,0,0,1-.36.37,1.21,1.21,0,0,1-.6.13,1.37,1.37,0,0,1-.6-0.12A0.9,0.9,0,0,1,66,24.16,1.21,1.21,0,0,1,65.89,23.54Zm0.66,0a0.72,0.72,0,0,0,.12.47,0.46,0.46,0,0,0,.66,0,0.79,0.79,0,0,0,.12-0.5,0.66,0.66,0,0,0-.12-0.44A0.42,0.42,0,0,0,67,22.93a0.4,0.4,0,0,0-.32.14A0.72,0.72,0,0,0,66.56,23.54Z" transform="translate(-3.48 -7.07)"/><path class="a" d="M68.2,22.47h0.63l0.23,1.2,0.33-1.2H70l0.33,1.2,0.23-1.2h0.63l-0.47,2.14H70.07L69.7,23.26l-0.37,1.35H68.67Z" transform="translate(-3.48 -7.07)"/><path class="a" d="M71.41,22.47h1.77v0.46H72.07v0.34h1V23.7h-1v0.42h1.14v0.48h-1.8V22.47Z" transform="translate(-3.48 -7.07)"/><path class="a" d="M73.58,24.61V22.47h1.1a1.61,1.61,0,0,1,.47.05,0.5,0.5,0,0,1,.26.2,0.59,0.59,0,0,1,.1.35,0.57,0.57,0,0,1-.28.52,0.8,0.8,0,0,1-.23.08l0.17,0.08,0.11,0.11L75.36,24l0.32,0.62H74.93L74.58,24a0.5,0.5,0,0,0-.12-0.16,0.28,0.28,0,0,0-.16,0H74.24v0.87H73.58Zm0.66-1.27h0.28l0.17,0a0.18,0.18,0,0,0,.11-0.07,0.22,0.22,0,0,0,0-.28,0.4,0.4,0,0,0-.25-0.06H74.24v0.44Z" transform="translate(-3.48 -7.07)"/><path class="a" d="M75.89,22.47h1.77v0.46H76.55v0.34h1V23.7h-1v0.42H77.7v0.48h-1.8V22.47Z" transform="translate(-3.48 -7.07)"/><path class="a" d="M78.06,22.47h1a1.18,1.18,0,0,1,.47.08,0.77,0.77,0,0,1,.3.23,0.93,0.93,0,0,1,.17.34,1.58,1.58,0,0,1,.05.41,1.44,1.44,0,0,1-.08.53,0.88,0.88,0,0,1-.22.32,0.71,0.71,0,0,1-.3.17,1.53,1.53,0,0,1-.39.06h-1V22.47ZM78.72,23v1.17h0.16a0.68,0.68,0,0,0,.29,0,0.31,0.31,0,0,0,.14-0.16,1,1,0,0,0,0-.37,0.72,0.72,0,0,0-.11-0.47A0.47,0.47,0,0,0,78.89,23H78.72Z" transform="translate(-3.48 -7.07)"/><path class="a" d="M81.38,22.47h1.24a0.67,0.67,0,0,1,.48.15,0.5,0.5,0,0,1,.17.38,0.48,0.48,0,0,1-.12.33,0.53,0.53,0,0,1-.23.14,0.6,0.6,0,0,1,.34.19,0.52,0.52,0,0,1,.11.34,0.59,0.59,0,0,1-.08.3,0.57,0.57,0,0,1-.21.21,0.7,0.7,0,0,1-.25.07l-0.3,0H81.38V22.47ZM82,23.31h0.29a0.33,0.33,0,0,0,.22-0.05,0.19,0.19,0,0,0,.06-0.15A0.18,0.18,0,0,0,82.55,23a0.32,0.32,0,0,0-.21-0.05H82v0.41Zm0,0.84h0.34a0.37,0.37,0,0,0,.24-0.06,0.2,0.2,0,0,0,.07-0.16,0.19,0.19,0,0,0-.07-0.15,0.39,0.39,0,0,0-.24-0.06H82v0.43Z" transform="translate(-3.48 -7.07)"/><path class="a" d="M83.48,22.47h0.73l0.43,0.72,0.43-.72h0.73L85,23.71v0.9H84.32v-0.9Z" transform="translate(-3.48 -7.07)"/><path class="a" d="M87,24.61V22.47h1.1a1.61,1.61,0,0,1,.47.05,0.5,0.5,0,0,1,.26.2,0.59,0.59,0,0,1,.1.35,0.57,0.57,0,0,1-.28.52,0.8,0.8,0,0,1-.23.08l0.17,0.08,0.11,0.11L88.82,24l0.32,0.62H88.39L88,24a0.5,0.5,0,0,0-.12-0.16,0.28,0.28,0,0,0-.16,0H87.7v0.87H87Zm0.66-1.27H88l0.17,0a0.18,0.18,0,0,0,.11-0.07,0.22,0.22,0,0,0,0-.28A0.4,0.4,0,0,0,88,22.9H87.7v0.44Z" transform="translate(-3.48 -7.07)"/><path class="a" d="M89.35,22.47h1.77v0.46H90v0.34h1V23.7H90v0.42h1.14v0.48h-1.8V22.47Z" transform="translate(-3.48 -7.07)"/><path class="a" d="M92.83,24.25H92.07l-0.1.35H91.29l0.8-2.14h0.72l0.8,2.14H92.93Zm-0.14-.46L92.45,23l-0.23.77h0.47Z" transform="translate(-3.48 -7.07)"/><path class="a" d="M93.84,22.47H94.5v1.61h1v0.53H93.84V22.47Z" transform="translate(-3.48 -7.07)"/><path class="a" d="M95.86,22.47h0.66v2.14H95.86V22.47Z" transform="translate(-3.48 -7.07)"/><path class="a" d="M96.94,22.47h1.87V22.9l-1.2,1.25h1.24v0.46h-2V24.16L98,22.92H96.94V22.47Z" transform="translate(-3.48 -7.07)"/><path class="a" d="M99.15,22.47h1.77v0.46H99.81v0.34h1V23.7h-1v0.42H101v0.48h-1.8V22.47Z" transform="translate(-3.48 -7.07)"/><path class="a" d="M103.39,23.83V23.39h1V24.3a2.12,2.12,0,0,1-.52.27,1.78,1.78,0,0,1-.54.07,1.29,1.29,0,0,1-.62-0.13,0.88,0.88,0,0,1-.37-0.39,1.28,1.28,0,0,1-.13-0.59,1.23,1.23,0,0,1,.14-0.61,0.93,0.93,0,0,1,.42-0.39,1.37,1.37,0,0,1,.58-0.1,1.65,1.65,0,0,1,.53.06,0.7,0.7,0,0,1,.29.2,0.9,0.9,0,0,1,.18.34l-0.64.11a0.34,0.34,0,0,0-.13-0.19,0.42,0.42,0,0,0-.24-0.06,0.43,0.43,0,0,0-.35.15,0.73,0.73,0,0,0-.13.48,0.75,0.75,0,0,0,.13.5,0.46,0.46,0,0,0,.36.15,0.69,0.69,0,0,0,.21,0,1.11,1.11,0,0,0,.23-0.11v-0.2h-0.44Z" transform="translate(-3.48 -7.07)"/><path class="a" d="M106.12,24.25h-0.75l-0.1.35h-0.68l0.8-2.14h0.72l0.8,2.14h-0.69ZM106,23.79L105.74,23l-0.23.77H106Z" transform="translate(-3.48 -7.07)"/><path class="a" d="M107.12,22.47H108l0.34,1.3,0.33-1.3h0.87v2.14H109V23l-0.42,1.63h-0.49L107.66,23v1.63h-0.54V22.47Z" transform="translate(-3.48 -7.07)"/><path class="a" d="M110,22.47h0.66v2.14H110V22.47Z" transform="translate(-3.48 -7.07)"/><path class="a" d="M111.12,22.47h0.62l0.81,1.18V22.47h0.62v2.14h-0.62l-0.8-1.18v1.18h-0.62V22.47Z" transform="translate(-3.48 -7.07)"/><path class="a" d="M114.68,23.83V23.39h1V24.3a2.12,2.12,0,0,1-.52.27,1.78,1.78,0,0,1-.54.07,1.29,1.29,0,0,1-.62-0.13,0.88,0.88,0,0,1-.37-0.39,1.28,1.28,0,0,1-.13-0.59,1.23,1.23,0,0,1,.14-0.61,0.93,0.93,0,0,1,.42-0.39,1.37,1.37,0,0,1,.58-0.1,1.65,1.65,0,0,1,.53.06,0.7,0.7,0,0,1,.29.2,0.9,0.9,0,0,1,.18.34l-0.64.11A0.34,0.34,0,0,0,114.9,23a0.42,0.42,0,0,0-.24-0.06,0.43,0.43,0,0,0-.35.15,0.73,0.73,0,0,0-.13.48,0.75,0.75,0,0,0,.13.5,0.46,0.46,0,0,0,.36.15,0.69,0.69,0,0,0,.21,0,1.11,1.11,0,0,0,.23-0.11v-0.2h-0.44Z" transform="translate(-3.48 -7.07)"/><path class="b" d="M4.48,8.17H7.13l1,3.67,1-3.67h2.65v6H10.18V9.6L8.9,14.2H7.4L6.13,9.6v4.6H4.48v-6Z" transform="translate(-3.48 -7.07)"/><path class="b" d="M17.37,8.17h2v3.59a2.81,2.81,0,0,1-.18,1,2.16,2.16,0,0,1-.57.83,2.29,2.29,0,0,1-.81.5,4.38,4.38,0,0,1-1.41.2,9.54,9.54,0,0,1-1-.06A2.9,2.9,0,0,1,14.43,14a2.34,2.34,0,0,1-.69-0.52,1.88,1.88,0,0,1-.43-0.7,3.35,3.35,0,0,1-.19-1V8.17h2v3.68a1,1,0,0,0,.3.77,1.36,1.36,0,0,0,1.64,0,1,1,0,0,0,.3-0.78V8.17Z" transform="translate(-3.48 -7.07)"/><path class="b" d="M20.72,8.17h2v4.55h3.15V14.2H20.72v-6Z" transform="translate(-3.48 -7.07)"/><path class="b" d="M25.89,8.17H32V9.66H30V14.2h-2V9.66H25.89V8.17Z" transform="translate(-3.48 -7.07)"/><path class="b" d="M33,8.17h2v6H33v-6Z" transform="translate(-3.48 -7.07)"/><path class="b" d="M36,11.35h2.64v1.3H36v-1.3Z" transform="translate(-3.48 -7.07)"/><path class="b" d="M39.54,8.17h2v2.11h2.21V8.17h2v6h-2V11.76H41.56V14.2h-2v-6Z" transform="translate(-3.48 -7.07)"/><path class="b" d="M51.16,13.21H48.86l-0.32,1H46.48l2.46-6h2.2l2.46,6H51.48Zm-0.42-1.3L50,9.73,49.3,11.9h1.44Z" transform="translate(-3.48 -7.07)"/><path class="b" d="M54.25,8.17h1.89l2.46,3.34V8.17h1.9v6H58.6l-2.45-3.31V14.2h-1.9v-6Z" transform="translate(-3.48 -7.07)"/><path class="b" d="M61.87,8.17h3a3.85,3.85,0,0,1,1.43.22,2.32,2.32,0,0,1,.9.64,2.57,2.57,0,0,1,.52,1,4.17,4.17,0,0,1,.16,1.17,3.77,3.77,0,0,1-.24,1.5,2.5,2.5,0,0,1-.66.89,2.21,2.21,0,0,1-.91.48,5,5,0,0,1-1.2.16h-3v-6Zm2,1.37v3.3h0.49a2.23,2.23,0,0,0,.9-0.13,0.9,0.9,0,0,0,.42-0.45,2.64,2.64,0,0,0,.15-1,1.92,1.92,0,0,0-.34-1.31,1.51,1.51,0,0,0-1.12-.35h-0.5Z" transform="translate(-3.48 -7.07)"/><path class="b" d="M72,8.17h2.66l1,3.67,1-3.67h2.65v6H77.66V9.6l-1.27,4.6h-1.5L73.62,9.6v4.6H72v-6Z" transform="translate(-3.48 -7.07)"/><path class="b" d="M80.69,8.17h2v6h-2v-6Z" transform="translate(-3.48 -7.07)"/><path class="b" d="M83.81,12.21l1.92-.11a1.29,1.29,0,0,0,.25.66,1.11,1.11,0,0,0,.89.37,1,1,0,0,0,.67-0.19,0.55,0.55,0,0,0,.23-0.43,0.54,0.54,0,0,0-.22-0.42,2.72,2.72,0,0,0-1-.35A4.59,4.59,0,0,1,84.62,11a1.43,1.43,0,0,1-.57-1.17A1.5,1.5,0,0,1,84.34,9a1.92,1.92,0,0,1,.88-0.65,4.41,4.41,0,0,1,1.61-.24,3.5,3.5,0,0,1,1.91.43,1.82,1.82,0,0,1,.78,1.37l-1.9.1a0.92,0.92,0,0,0-.32-0.59,1.08,1.08,0,0,0-.67-0.19,0.86,0.86,0,0,0-.53.14,0.41,0.41,0,0,0-.18.34,0.33,0.33,0,0,0,.15.26,1.73,1.73,0,0,0,.68.22,9,9,0,0,1,1.9.53,2,2,0,0,1,.83.67,1.6,1.6,0,0,1,.26.89,1.81,1.81,0,0,1-.35,1.07,2.14,2.14,0,0,1-1,.74,4.21,4.21,0,0,1-1.57.25,3.43,3.43,0,0,1-2.31-.59A2.26,2.26,0,0,1,83.81,12.21Z" transform="translate(-3.48 -7.07)"/><path class="b" d="M90.4,12.21l1.92-.11a1.29,1.29,0,0,0,.25.66,1.11,1.11,0,0,0,.89.37,1,1,0,0,0,.67-0.19,0.55,0.55,0,0,0,.23-0.43,0.54,0.54,0,0,0-.22-0.42,2.72,2.72,0,0,0-1-.35A4.6,4.6,0,0,1,91.21,11a1.43,1.43,0,0,1-.57-1.17A1.5,1.5,0,0,1,90.94,9a1.92,1.92,0,0,1,.88-0.65,4.41,4.41,0,0,1,1.61-.24,3.5,3.5,0,0,1,1.91.43,1.82,1.82,0,0,1,.78,1.37l-1.9.1a0.92,0.92,0,0,0-.32-0.59,1.08,1.08,0,0,0-.67-0.19,0.86,0.86,0,0,0-.53.14,0.41,0.41,0,0,0-.18.34,0.33,0.33,0,0,0,.15.26,1.74,1.74,0,0,0,.68.22,9,9,0,0,1,1.9.53,2,2,0,0,1,.83.67,1.6,1.6,0,0,1,.26.89A1.81,1.81,0,0,1,96,13.31a2.14,2.14,0,0,1-1,.74,4.21,4.21,0,0,1-1.57.25,3.43,3.43,0,0,1-2.31-.59A2.26,2.26,0,0,1,90.4,12.21Z" transform="translate(-3.48 -7.07)"/><path class="b" d="M97.42,8.17h2v6h-2v-6Z" transform="translate(-3.48 -7.07)"/><path class="b" d="M100.54,12.21l1.92-.11a1.29,1.29,0,0,0,.25.66,1.11,1.11,0,0,0,.89.37,1,1,0,0,0,.67-0.19,0.55,0.55,0,0,0,.23-0.43,0.54,0.54,0,0,0-.22-0.42,2.72,2.72,0,0,0-1-.35,4.6,4.6,0,0,1-1.89-.73,1.43,1.43,0,0,1-.57-1.17A1.5,1.5,0,0,1,101.08,9,1.92,1.92,0,0,1,102,8.3a4.41,4.41,0,0,1,1.61-.24,3.5,3.5,0,0,1,1.91.43,1.82,1.82,0,0,1,.78,1.37l-1.9.1A0.92,0.92,0,0,0,104,9.37a1.08,1.08,0,0,0-.67-0.19,0.86,0.86,0,0,0-.53.14,0.41,0.41,0,0,0-.18.34,0.33,0.33,0,0,0,.15.26,1.74,1.74,0,0,0,.68.22,9,9,0,0,1,1.9.53,2,2,0,0,1,.83.67,1.6,1.6,0,0,1,.26.89,1.81,1.81,0,0,1-.35,1.07,2.14,2.14,0,0,1-1,.74,4.21,4.21,0,0,1-1.57.25,3.43,3.43,0,0,1-2.31-.59A2.26,2.26,0,0,1,100.54,12.21Z" transform="translate(-3.48 -7.07)"/><path class="b" d="M107.14,12.21l1.92-.11a1.29,1.29,0,0,0,.25.66,1.11,1.11,0,0,0,.89.37,1,1,0,0,0,.67-0.19,0.55,0.55,0,0,0,.23-0.43,0.54,0.54,0,0,0-.22-0.42,2.72,2.72,0,0,0-1-.35A4.6,4.6,0,0,1,108,11a1.43,1.43,0,0,1-.57-1.17A1.5,1.5,0,0,1,107.67,9a1.92,1.92,0,0,1,.88-0.65,4.41,4.41,0,0,1,1.61-.24,3.5,3.5,0,0,1,1.91.43,1.82,1.82,0,0,1,.78,1.37l-1.9.1a0.92,0.92,0,0,0-.32-0.59A1.08,1.08,0,0,0,110,9.19a0.86,0.86,0,0,0-.53.14,0.41,0.41,0,0,0-.18.34,0.33,0.33,0,0,0,.15.26,1.74,1.74,0,0,0,.68.22,9,9,0,0,1,1.9.53,2,2,0,0,1,.83.67,1.6,1.6,0,0,1,.26.89,1.81,1.81,0,0,1-.35,1.07,2.14,2.14,0,0,1-1,.74,4.21,4.21,0,0,1-1.57.25,3.43,3.43,0,0,1-2.31-.59A2.26,2.26,0,0,1,107.14,12.21Z" transform="translate(-3.48 -7.07)"/><path class="b" d="M114.16,8.17h2v6h-2v-6Z" transform="translate(-3.48 -7.07)"/><path class="b" d="M117.63,8.17H121a2.42,2.42,0,0,1,1.64.48,1.73,1.73,0,0,1,.55,1.37,1.79,1.79,0,0,1-.59,1.43,2.73,2.73,0,0,1-1.82.51h-1.11V14.2h-2v-6Zm2,2.57h0.5a1.35,1.35,0,0,0,.82-0.19,0.59,0.59,0,0,0,.24-0.48A0.64,0.64,0,0,0,121,9.59a1.12,1.12,0,0,0-.77-0.2h-0.58v1.35Z" transform="translate(-3.48 -7.07)"/><path class="b" d="M124.22,8.17h3.36a2.42,2.42,0,0,1,1.64.48,1.73,1.73,0,0,1,.55,1.37,1.79,1.79,0,0,1-.59,1.43,2.73,2.73,0,0,1-1.82.51h-1.11V14.2h-2v-6Zm2,2.57h0.5a1.35,1.35,0,0,0,.82-0.19,0.59,0.59,0,0,0,.24-0.48,0.64,0.64,0,0,0-.21-0.48,1.12,1.12,0,0,0-.77-0.2h-0.58v1.35Z" transform="translate(-3.48 -7.07)"/><path class="b" d="M130.9,8.17h2v6h-2v-6Z" transform="translate(-3.48 -7.07)"/><path class="b" d="M137.41,8.17h3.36a2.42,2.42,0,0,1,1.64.48A1.73,1.73,0,0,1,143,10a1.79,1.79,0,0,1-.59,1.43,2.73,2.73,0,0,1-1.82.51h-1.11V14.2h-2v-6Zm2,2.57h0.5a1.35,1.35,0,0,0,.82-0.19,0.59,0.59,0,0,0,.24-0.48,0.64,0.64,0,0,0-.21-0.48,1.12,1.12,0,0,0-.77-0.2h-0.58v1.35Z" transform="translate(-3.48 -7.07)"/><path class="b" d="M143.76,11.19a3,3,0,0,1,.89-2.3,3.52,3.52,0,0,1,2.48-.82,3.59,3.59,0,0,1,2.51.81,2.92,2.92,0,0,1,.88,2.27,3.48,3.48,0,0,1-.39,1.73A2.64,2.64,0,0,1,149,13.93a3.92,3.92,0,0,1-1.82.38,4.48,4.48,0,0,1-1.83-.33,2.68,2.68,0,0,1-1.17-1A3.2,3.2,0,0,1,143.76,11.19Zm2,0a1.91,1.91,0,0,0,.37,1.31,1.47,1.47,0,0,0,2,0,2.1,2.1,0,0,0,.36-1.4,1.77,1.77,0,0,0-.37-1.25,1.32,1.32,0,0,0-1-.39,1.27,1.27,0,0,0-1,.4A1.92,1.92,0,0,0,145.78,11.2Z" transform="translate(-3.48 -7.07)"/><path class="b" d="M151.63,8.17h2v2.28l2.12-2.28h2.69l-2.38,2.28,2.49,3.76h-2.49l-1.38-2.48-1,1V14.2h-2v-6Z" transform="translate(-3.48 -7.07)"/><path class="b" d="M159.22,8.17h5.41V9.46h-3.39v1h3.14v1.23h-3.14v1.19h3.49V14.2h-5.51v-6Z" transform="translate(-3.48 -7.07)"/><path class="b" d="M165.84,14.2v-6h3.37a5.29,5.29,0,0,1,1.43.15,1.52,1.52,0,0,1,.8.55,1.73,1.73,0,0,1,.07,1.84,1.76,1.76,0,0,1-.64.59,2.55,2.55,0,0,1-.71.24,2.09,2.09,0,0,1,.53.22,2,2,0,0,1,.32.32,2.37,2.37,0,0,1,.28.38l1,1.75H170l-1.08-1.84a1.42,1.42,0,0,0-.37-0.47,0.9,0.9,0,0,0-.49-0.14h-0.18V14.2h-2Zm2-3.59h0.85a3.32,3.32,0,0,0,.54-0.08,0.54,0.54,0,0,0,.33-0.19,0.53,0.53,0,0,0,.13-0.35,0.54,0.54,0,0,0-.2-0.45,1.29,1.29,0,0,0-.75-0.16h-0.89v1.23Z" transform="translate(-3.48 -7.07)"/><path class="c" d="M3.48,7.17H6.13l1,3.67,1-3.67h2.65v6H9.18V8.6L7.9,13.2H6.4L5.13,8.6v4.6H3.48v-6Z" transform="translate(-3.48 -7.07)"/><path class="c" d="M16.37,7.17h2v3.59a2.81,2.81,0,0,1-.18,1,2.16,2.16,0,0,1-.57.83,2.29,2.29,0,0,1-.81.5,4.38,4.38,0,0,1-1.41.2,9.54,9.54,0,0,1-1-.06A2.9,2.9,0,0,1,13.43,13a2.34,2.34,0,0,1-.69-0.52,1.88,1.88,0,0,1-.43-0.7,3.35,3.35,0,0,1-.19-1V7.17h2v3.68a1,1,0,0,0,.3.77,1.36,1.36,0,0,0,1.64,0,1,1,0,0,0,.3-0.78V7.17Z" transform="translate(-3.48 -7.07)"/><path class="c" d="M19.72,7.17h2v4.55h3.15V13.2H19.72v-6Z" transform="translate(-3.48 -7.07)"/><path class="c" d="M24.89,7.17H31V8.66H29V13.2h-2V8.66H24.89V7.17Z" transform="translate(-3.48 -7.07)"/><path class="c" d="M32,7.17h2v6H32v-6Z" transform="translate(-3.48 -7.07)"/><path class="c" d="M35,10.35h2.64v1.3H35v-1.3Z" transform="translate(-3.48 -7.07)"/><path class="c" d="M38.54,7.17h2V9.28h2.21V7.17h2v6h-2V10.76H40.56V13.2h-2v-6Z" transform="translate(-3.48 -7.07)"/><path class="c" d="M50.16,12.21H47.86l-0.32,1H45.48l2.46-6h2.2l2.46,6H50.48Zm-0.42-1.3L49,8.73,48.3,10.9h1.44Z" transform="translate(-3.48 -7.07)"/><path class="c" d="M53.25,7.17h1.89l2.46,3.34V7.17h1.9v6H57.6L55.15,9.89V13.2h-1.9v-6Z" transform="translate(-3.48 -7.07)"/><path class="c" d="M60.87,7.17h3a3.85,3.85,0,0,1,1.43.22,2.32,2.32,0,0,1,.9.64,2.57,2.57,0,0,1,.52,1,4.17,4.17,0,0,1,.16,1.17,3.77,3.77,0,0,1-.24,1.5,2.5,2.5,0,0,1-.66.89,2.21,2.21,0,0,1-.91.48,5,5,0,0,1-1.2.16h-3v-6Zm2,1.37v3.3h0.49a2.23,2.23,0,0,0,.9-0.13,0.9,0.9,0,0,0,.42-0.45,2.64,2.64,0,0,0,.15-1,1.92,1.92,0,0,0-.34-1.31,1.51,1.51,0,0,0-1.12-.35h-0.5Z" transform="translate(-3.48 -7.07)"/><path class="c" d="M71,7.17h2.66l1,3.67,1-3.67h2.65v6H76.66V8.6l-1.27,4.6h-1.5L72.62,8.6v4.6H71v-6Z" transform="translate(-3.48 -7.07)"/><path class="c" d="M79.69,7.17h2v6h-2v-6Z" transform="translate(-3.48 -7.07)"/><path class="c" d="M82.81,11.21l1.92-.11a1.29,1.29,0,0,0,.25.66,1.11,1.11,0,0,0,.89.37,1,1,0,0,0,.67-0.19,0.55,0.55,0,0,0,.23-0.43,0.54,0.54,0,0,0-.22-0.42,2.72,2.72,0,0,0-1-.35A4.59,4.59,0,0,1,83.62,10a1.43,1.43,0,0,1-.57-1.17A1.5,1.5,0,0,1,83.34,8a1.92,1.92,0,0,1,.88-0.65,4.41,4.41,0,0,1,1.61-.24,3.5,3.5,0,0,1,1.91.43,1.82,1.82,0,0,1,.78,1.37l-1.9.1a0.92,0.92,0,0,0-.32-0.59,1.08,1.08,0,0,0-.67-0.19,0.86,0.86,0,0,0-.53.14,0.41,0.41,0,0,0-.18.34,0.33,0.33,0,0,0,.15.26,1.73,1.73,0,0,0,.68.22,9,9,0,0,1,1.9.53,2,2,0,0,1,.83.67,1.6,1.6,0,0,1,.26.89,1.81,1.81,0,0,1-.35,1.07,2.14,2.14,0,0,1-1,.74,4.21,4.21,0,0,1-1.57.25,3.43,3.43,0,0,1-2.31-.59A2.26,2.26,0,0,1,82.81,11.21Z" transform="translate(-3.48 -7.07)"/><path class="c" d="M89.4,11.21l1.92-.11a1.29,1.29,0,0,0,.25.66,1.11,1.11,0,0,0,.89.37,1,1,0,0,0,.67-0.19,0.55,0.55,0,0,0,.23-0.43,0.54,0.54,0,0,0-.22-0.42,2.72,2.72,0,0,0-1-.35A4.6,4.6,0,0,1,90.21,10a1.43,1.43,0,0,1-.57-1.17A1.5,1.5,0,0,1,89.94,8a1.92,1.92,0,0,1,.88-0.65,4.41,4.41,0,0,1,1.61-.24,3.5,3.5,0,0,1,1.91.43,1.82,1.82,0,0,1,.78,1.37l-1.9.1a0.92,0.92,0,0,0-.32-0.59,1.08,1.08,0,0,0-.67-0.19,0.86,0.86,0,0,0-.53.14,0.41,0.41,0,0,0-.18.34,0.33,0.33,0,0,0,.15.26,1.74,1.74,0,0,0,.68.22,9,9,0,0,1,1.9.53,2,2,0,0,1,.83.67,1.6,1.6,0,0,1,.26.89A1.81,1.81,0,0,1,95,12.31a2.14,2.14,0,0,1-1,.74,4.21,4.21,0,0,1-1.57.25,3.43,3.43,0,0,1-2.31-.59A2.26,2.26,0,0,1,89.4,11.21Z" transform="translate(-3.48 -7.07)"/><path class="c" d="M96.42,7.17h2v6h-2v-6Z" transform="translate(-3.48 -7.07)"/><path class="c" d="M99.54,11.21l1.92-.11a1.29,1.29,0,0,0,.25.66,1.11,1.11,0,0,0,.89.37,1,1,0,0,0,.67-0.19,0.55,0.55,0,0,0,.23-0.43,0.54,0.54,0,0,0-.22-0.42,2.72,2.72,0,0,0-1-.35,4.6,4.6,0,0,1-1.89-.73,1.43,1.43,0,0,1-.57-1.17A1.5,1.5,0,0,1,100.08,8,1.92,1.92,0,0,1,101,7.3a4.41,4.41,0,0,1,1.61-.24,3.5,3.5,0,0,1,1.91.43,1.82,1.82,0,0,1,.78,1.37l-1.9.1A0.92,0.92,0,0,0,103,8.37a1.08,1.08,0,0,0-.67-0.19,0.86,0.86,0,0,0-.53.14,0.41,0.41,0,0,0-.18.34,0.33,0.33,0,0,0,.15.26,1.74,1.74,0,0,0,.68.22,9,9,0,0,1,1.9.53,2,2,0,0,1,.83.67,1.6,1.6,0,0,1,.26.89,1.81,1.81,0,0,1-.35,1.07,2.14,2.14,0,0,1-1,.74,4.21,4.21,0,0,1-1.57.25,3.43,3.43,0,0,1-2.31-.59A2.26,2.26,0,0,1,99.54,11.21Z" transform="translate(-3.48 -7.07)"/><path class="c" d="M106.14,11.21l1.92-.11a1.29,1.29,0,0,0,.25.66,1.11,1.11,0,0,0,.89.37,1,1,0,0,0,.67-0.19,0.55,0.55,0,0,0,.23-0.43,0.54,0.54,0,0,0-.22-0.42,2.72,2.72,0,0,0-1-.35A4.6,4.6,0,0,1,107,10a1.43,1.43,0,0,1-.57-1.17A1.5,1.5,0,0,1,106.67,8a1.92,1.92,0,0,1,.88-0.65,4.41,4.41,0,0,1,1.61-.24,3.5,3.5,0,0,1,1.91.43,1.82,1.82,0,0,1,.78,1.37l-1.9.1a0.92,0.92,0,0,0-.32-0.59A1.08,1.08,0,0,0,109,8.19a0.86,0.86,0,0,0-.53.14,0.41,0.41,0,0,0-.18.34,0.33,0.33,0,0,0,.15.26,1.74,1.74,0,0,0,.68.22,9,9,0,0,1,1.9.53,2,2,0,0,1,.83.67,1.6,1.6,0,0,1,.26.89,1.81,1.81,0,0,1-.35,1.07,2.14,2.14,0,0,1-1,.74,4.21,4.21,0,0,1-1.57.25,3.43,3.43,0,0,1-2.31-.59A2.26,2.26,0,0,1,106.14,11.21Z" transform="translate(-3.48 -7.07)"/><path class="c" d="M113.16,7.17h2v6h-2v-6Z" transform="translate(-3.48 -7.07)"/><path class="c" d="M116.63,7.17H120a2.42,2.42,0,0,1,1.64.48A1.73,1.73,0,0,1,122.17,9a1.79,1.79,0,0,1-.59,1.43,2.73,2.73,0,0,1-1.82.51h-1.11V13.2h-2v-6Zm2,2.57h0.5A1.35,1.35,0,0,0,120,9.55a0.59,0.59,0,0,0,.24-0.48A0.64,0.64,0,0,0,120,8.59a1.12,1.12,0,0,0-.77-0.2h-0.58V9.74Z" transform="translate(-3.48 -7.07)"/><path class="c" d="M123.22,7.17h3.36a2.42,2.42,0,0,1,1.64.48A1.73,1.73,0,0,1,128.76,9a1.79,1.79,0,0,1-.59,1.43,2.73,2.73,0,0,1-1.82.51h-1.11V13.2h-2v-6Zm2,2.57h0.5a1.35,1.35,0,0,0,.82-0.19,0.59,0.59,0,0,0,.24-0.48,0.64,0.64,0,0,0-.21-0.48,1.12,1.12,0,0,0-.77-0.2h-0.58V9.74Z" transform="translate(-3.48 -7.07)"/><path class="c" d="M129.9,7.17h2v6h-2v-6Z" transform="translate(-3.48 -7.07)"/><path class="c" d="M136.41,7.17h3.36a2.42,2.42,0,0,1,1.64.48A1.73,1.73,0,0,1,142,9a1.79,1.79,0,0,1-.59,1.43,2.73,2.73,0,0,1-1.82.51h-1.11V13.2h-2v-6Zm2,2.57h0.5a1.35,1.35,0,0,0,.82-0.19A0.59,0.59,0,0,0,140,9.07a0.64,0.64,0,0,0-.21-0.48,1.12,1.12,0,0,0-.77-0.2h-0.58V9.74Z" transform="translate(-3.48 -7.07)"/><path class="c" d="M142.76,10.19a3,3,0,0,1,.89-2.3,3.52,3.52,0,0,1,2.48-.82,3.59,3.59,0,0,1,2.51.81,2.92,2.92,0,0,1,.88,2.27,3.48,3.48,0,0,1-.39,1.73A2.64,2.64,0,0,1,148,12.93a3.92,3.92,0,0,1-1.82.38,4.48,4.48,0,0,1-1.83-.33,2.68,2.68,0,0,1-1.17-1A3.2,3.2,0,0,1,142.76,10.19Zm2,0a1.91,1.91,0,0,0,.37,1.31,1.47,1.47,0,0,0,2,0,2.1,2.1,0,0,0,.36-1.4,1.77,1.77,0,0,0-.37-1.25,1.32,1.32,0,0,0-1-.39,1.27,1.27,0,0,0-1,.4A1.92,1.92,0,0,0,144.78,10.2Z" transform="translate(-3.48 -7.07)"/><path class="c" d="M150.63,7.17h2V9.45l2.12-2.28h2.69l-2.38,2.28,2.49,3.76h-2.49l-1.38-2.48-1,1V13.2h-2v-6Z" transform="translate(-3.48 -7.07)"/><path class="c" d="M158.22,7.17h5.41V8.46h-3.39v1h3.14v1.23h-3.14v1.19h3.49V13.2h-5.51v-6Z" transform="translate(-3.48 -7.07)"/><path class="c" d="M164.84,13.2v-6h3.37a5.29,5.29,0,0,1,1.43.15,1.52,1.52,0,0,1,.8.55,1.58,1.58,0,0,1,.3,1,1.58,1.58,0,0,1-.23.87,1.76,1.76,0,0,1-.64.59,2.55,2.55,0,0,1-.71.24,2.09,2.09,0,0,1,.53.22,2,2,0,0,1,.32.32,2.37,2.37,0,0,1,.28.38l1,1.75H169l-1.08-1.84a1.42,1.42,0,0,0-.37-0.47,0.9,0.9,0,0,0-.49-0.14h-0.18V13.2h-2Zm2-3.59h0.85a3.32,3.32,0,0,0,.54-0.08,0.54,0.54,0,0,0,.33-0.19A0.53,0.53,0,0,0,168.71,9a0.54,0.54,0,0,0-.2-0.45,1.29,1.29,0,0,0-.75-0.16h-0.89V9.61Z" transform="translate(-3.48 -7.07)"/></svg>